<mxfile host="app.diagrams.net" modified="2023-05-27T09:38:11.454Z" agent="Mozilla/5.0 (Windows NT 10.0; Win64; x64; rv:109.0) Gecko/20100101 Firefox/113.0" etag="BX1wfWks_c6Mmau7tTc0" version="21.1.5" type="github">
  <diagram id="C5RBs43oDa-KdzZeNtuy" name="Page-1">
    <mxGraphModel dx="2440" dy="1322" grid="1" gridSize="10" guides="1" tooltips="1" connect="1" arrows="1" fold="1" page="1" pageScale="1" pageWidth="827" pageHeight="1169" math="0" shadow="0">
      <root>
        <mxCell id="WIyWlLk6GJQsqaUBKTNV-0" />
        <mxCell id="WIyWlLk6GJQsqaUBKTNV-1" parent="WIyWlLk6GJQsqaUBKTNV-0" />
        <mxCell id="wgxXqdoDS0YWs2D0Menj-3" value="" style="edgeStyle=orthogonalEdgeStyle;rounded=0;orthogonalLoop=1;jettySize=auto;html=1;" edge="1" parent="WIyWlLk6GJQsqaUBKTNV-1" source="wgxXqdoDS0YWs2D0Menj-1" target="wgxXqdoDS0YWs2D0Menj-2">
          <mxGeometry relative="1" as="geometry" />
        </mxCell>
        <mxCell id="wgxXqdoDS0YWs2D0Menj-1" value="Start here" style="ellipse;whiteSpace=wrap;html=1;" vertex="1" parent="WIyWlLk6GJQsqaUBKTNV-1">
          <mxGeometry x="10" y="145" width="70" height="30" as="geometry" />
        </mxCell>
        <mxCell id="wgxXqdoDS0YWs2D0Menj-5" value="" style="edgeStyle=orthogonalEdgeStyle;rounded=0;orthogonalLoop=1;jettySize=auto;html=1;" edge="1" parent="WIyWlLk6GJQsqaUBKTNV-1" source="wgxXqdoDS0YWs2D0Menj-2" target="wgxXqdoDS0YWs2D0Menj-4">
          <mxGeometry relative="1" as="geometry" />
        </mxCell>
        <mxCell id="wgxXqdoDS0YWs2D0Menj-6" value="Yes" style="edgeLabel;html=1;align=center;verticalAlign=middle;resizable=0;points=[];" vertex="1" connectable="0" parent="wgxXqdoDS0YWs2D0Menj-5">
          <mxGeometry x="-0.2035" y="-3" relative="1" as="geometry">
            <mxPoint x="4" y="-18" as="offset" />
          </mxGeometry>
        </mxCell>
        <mxCell id="wgxXqdoDS0YWs2D0Menj-2" value="Is it a common noun?" style="rhombus;whiteSpace=wrap;html=1;" vertex="1" parent="WIyWlLk6GJQsqaUBKTNV-1">
          <mxGeometry x="120" y="120" width="70" height="80" as="geometry" />
        </mxCell>
        <mxCell id="wgxXqdoDS0YWs2D0Menj-8" value="" style="edgeStyle=orthogonalEdgeStyle;rounded=0;orthogonalLoop=1;jettySize=auto;html=1;" edge="1" parent="WIyWlLk6GJQsqaUBKTNV-1" source="wgxXqdoDS0YWs2D0Menj-4" target="wgxXqdoDS0YWs2D0Menj-7">
          <mxGeometry relative="1" as="geometry" />
        </mxCell>
        <mxCell id="wgxXqdoDS0YWs2D0Menj-9" value="Yes" style="edgeLabel;html=1;align=center;verticalAlign=middle;resizable=0;points=[];" vertex="1" connectable="0" parent="wgxXqdoDS0YWs2D0Menj-8">
          <mxGeometry x="-0.365" relative="1" as="geometry">
            <mxPoint y="-15" as="offset" />
          </mxGeometry>
        </mxCell>
        <mxCell id="wgxXqdoDS0YWs2D0Menj-4" value="Is it singular?" style="rhombus;whiteSpace=wrap;html=1;" vertex="1" parent="WIyWlLk6GJQsqaUBKTNV-1">
          <mxGeometry x="240" y="120" width="70" height="80" as="geometry" />
        </mxCell>
        <mxCell id="wgxXqdoDS0YWs2D0Menj-11" value="" style="edgeStyle=orthogonalEdgeStyle;rounded=0;orthogonalLoop=1;jettySize=auto;html=1;" edge="1" parent="WIyWlLk6GJQsqaUBKTNV-1" source="wgxXqdoDS0YWs2D0Menj-7" target="wgxXqdoDS0YWs2D0Menj-10">
          <mxGeometry relative="1" as="geometry" />
        </mxCell>
        <mxCell id="wgxXqdoDS0YWs2D0Menj-12" value="Yes" style="edgeLabel;html=1;align=center;verticalAlign=middle;resizable=0;points=[];" vertex="1" connectable="0" parent="wgxXqdoDS0YWs2D0Menj-11">
          <mxGeometry x="-0.1285" relative="1" as="geometry">
            <mxPoint y="-15" as="offset" />
          </mxGeometry>
        </mxCell>
        <mxCell id="wgxXqdoDS0YWs2D0Menj-7" value="Is a geographical feature?" style="rhombus;whiteSpace=wrap;html=1;" vertex="1" parent="WIyWlLk6GJQsqaUBKTNV-1">
          <mxGeometry x="350" y="120" width="80" height="80" as="geometry" />
        </mxCell>
        <mxCell id="wgxXqdoDS0YWs2D0Menj-14" value="" style="edgeStyle=orthogonalEdgeStyle;rounded=0;orthogonalLoop=1;jettySize=auto;html=1;" edge="1" parent="WIyWlLk6GJQsqaUBKTNV-1" source="wgxXqdoDS0YWs2D0Menj-10" target="wgxXqdoDS0YWs2D0Menj-13">
          <mxGeometry relative="1" as="geometry" />
        </mxCell>
        <mxCell id="wgxXqdoDS0YWs2D0Menj-15" value="Yes" style="edgeLabel;html=1;align=center;verticalAlign=middle;resizable=0;points=[];" vertex="1" connectable="0" parent="wgxXqdoDS0YWs2D0Menj-14">
          <mxGeometry x="-0.36" y="3" relative="1" as="geometry">
            <mxPoint x="12" as="offset" />
          </mxGeometry>
        </mxCell>
        <mxCell id="wgxXqdoDS0YWs2D0Menj-17" value="" style="edgeStyle=orthogonalEdgeStyle;rounded=0;orthogonalLoop=1;jettySize=auto;html=1;" edge="1" parent="WIyWlLk6GJQsqaUBKTNV-1" source="wgxXqdoDS0YWs2D0Menj-10" target="wgxXqdoDS0YWs2D0Menj-16">
          <mxGeometry relative="1" as="geometry" />
        </mxCell>
        <mxCell id="wgxXqdoDS0YWs2D0Menj-18" value="No" style="edgeLabel;html=1;align=center;verticalAlign=middle;resizable=0;points=[];" vertex="1" connectable="0" parent="wgxXqdoDS0YWs2D0Menj-17">
          <mxGeometry x="0.2267" relative="1" as="geometry">
            <mxPoint x="-4" y="-15" as="offset" />
          </mxGeometry>
        </mxCell>
        <mxCell id="wgxXqdoDS0YWs2D0Menj-10" value="Is it an ocean?" style="rhombus;whiteSpace=wrap;html=1;" vertex="1" parent="WIyWlLk6GJQsqaUBKTNV-1">
          <mxGeometry x="470" y="120" width="70" height="80" as="geometry" />
        </mxCell>
        <mxCell id="wgxXqdoDS0YWs2D0Menj-13" value="THE" style="rounded=1;whiteSpace=wrap;html=1;" vertex="1" parent="WIyWlLk6GJQsqaUBKTNV-1">
          <mxGeometry x="482.5" y="230" width="45" height="20" as="geometry" />
        </mxCell>
        <mxCell id="wgxXqdoDS0YWs2D0Menj-20" value="" style="edgeStyle=orthogonalEdgeStyle;rounded=0;orthogonalLoop=1;jettySize=auto;html=1;" edge="1" parent="WIyWlLk6GJQsqaUBKTNV-1" source="wgxXqdoDS0YWs2D0Menj-16" target="wgxXqdoDS0YWs2D0Menj-19">
          <mxGeometry relative="1" as="geometry">
            <Array as="points">
              <mxPoint x="620" y="210" />
              <mxPoint x="620" y="210" />
            </Array>
          </mxGeometry>
        </mxCell>
        <mxCell id="wgxXqdoDS0YWs2D0Menj-21" value="Yes" style="edgeLabel;html=1;align=center;verticalAlign=middle;resizable=0;points=[];" vertex="1" connectable="0" parent="wgxXqdoDS0YWs2D0Menj-20">
          <mxGeometry x="-0.3067" relative="1" as="geometry">
            <mxPoint x="20" as="offset" />
          </mxGeometry>
        </mxCell>
        <mxCell id="wgxXqdoDS0YWs2D0Menj-23" value="" style="edgeStyle=orthogonalEdgeStyle;rounded=0;orthogonalLoop=1;jettySize=auto;html=1;" edge="1" parent="WIyWlLk6GJQsqaUBKTNV-1" source="wgxXqdoDS0YWs2D0Menj-16" target="wgxXqdoDS0YWs2D0Menj-22">
          <mxGeometry relative="1" as="geometry" />
        </mxCell>
        <mxCell id="wgxXqdoDS0YWs2D0Menj-24" value="No" style="edgeLabel;html=1;align=center;verticalAlign=middle;resizable=0;points=[];" vertex="1" connectable="0" parent="wgxXqdoDS0YWs2D0Menj-23">
          <mxGeometry x="-0.76" relative="1" as="geometry">
            <mxPoint y="-15" as="offset" />
          </mxGeometry>
        </mxCell>
        <mxCell id="wgxXqdoDS0YWs2D0Menj-16" value="Is it a sea?" style="rhombus;whiteSpace=wrap;html=1;" vertex="1" parent="WIyWlLk6GJQsqaUBKTNV-1">
          <mxGeometry x="580" y="120" width="80" height="80" as="geometry" />
        </mxCell>
        <mxCell id="wgxXqdoDS0YWs2D0Menj-19" value="THE" style="rounded=1;whiteSpace=wrap;html=1;" vertex="1" parent="WIyWlLk6GJQsqaUBKTNV-1">
          <mxGeometry x="600" y="230" width="40" height="20" as="geometry" />
        </mxCell>
        <mxCell id="wgxXqdoDS0YWs2D0Menj-26" value="" style="edgeStyle=orthogonalEdgeStyle;rounded=0;orthogonalLoop=1;jettySize=auto;html=1;" edge="1" parent="WIyWlLk6GJQsqaUBKTNV-1" source="wgxXqdoDS0YWs2D0Menj-22" target="wgxXqdoDS0YWs2D0Menj-25">
          <mxGeometry relative="1" as="geometry" />
        </mxCell>
        <mxCell id="wgxXqdoDS0YWs2D0Menj-27" value="Yes" style="edgeLabel;html=1;align=center;verticalAlign=middle;resizable=0;points=[];" vertex="1" connectable="0" parent="wgxXqdoDS0YWs2D0Menj-26">
          <mxGeometry x="-0.77" y="1" relative="1" as="geometry">
            <mxPoint x="9" y="1" as="offset" />
          </mxGeometry>
        </mxCell>
        <mxCell id="wgxXqdoDS0YWs2D0Menj-35" value="" style="edgeStyle=orthogonalEdgeStyle;rounded=0;orthogonalLoop=1;jettySize=auto;html=1;" edge="1" parent="WIyWlLk6GJQsqaUBKTNV-1" source="wgxXqdoDS0YWs2D0Menj-22" target="wgxXqdoDS0YWs2D0Menj-34">
          <mxGeometry relative="1" as="geometry" />
        </mxCell>
        <mxCell id="wgxXqdoDS0YWs2D0Menj-36" value="No" style="edgeLabel;html=1;align=center;verticalAlign=middle;resizable=0;points=[];" vertex="1" connectable="0" parent="wgxXqdoDS0YWs2D0Menj-35">
          <mxGeometry x="-0.36" relative="1" as="geometry">
            <mxPoint y="-15" as="offset" />
          </mxGeometry>
        </mxCell>
        <mxCell id="wgxXqdoDS0YWs2D0Menj-22" value="Is it a lake?" style="rhombus;whiteSpace=wrap;html=1;" vertex="1" parent="WIyWlLk6GJQsqaUBKTNV-1">
          <mxGeometry x="700" y="120" width="80" height="80" as="geometry" />
        </mxCell>
        <mxCell id="wgxXqdoDS0YWs2D0Menj-29" value="" style="edgeStyle=orthogonalEdgeStyle;rounded=0;orthogonalLoop=1;jettySize=auto;html=1;" edge="1" parent="WIyWlLk6GJQsqaUBKTNV-1" source="wgxXqdoDS0YWs2D0Menj-25" target="wgxXqdoDS0YWs2D0Menj-28">
          <mxGeometry relative="1" as="geometry" />
        </mxCell>
        <mxCell id="wgxXqdoDS0YWs2D0Menj-30" value="Yes" style="edgeLabel;html=1;align=center;verticalAlign=middle;resizable=0;points=[];" vertex="1" connectable="0" parent="wgxXqdoDS0YWs2D0Menj-29">
          <mxGeometry x="-0.7" relative="1" as="geometry">
            <mxPoint x="10" as="offset" />
          </mxGeometry>
        </mxCell>
        <mxCell id="wgxXqdoDS0YWs2D0Menj-32" value="" style="edgeStyle=orthogonalEdgeStyle;rounded=0;orthogonalLoop=1;jettySize=auto;html=1;" edge="1" parent="WIyWlLk6GJQsqaUBKTNV-1" source="wgxXqdoDS0YWs2D0Menj-25" target="wgxXqdoDS0YWs2D0Menj-31">
          <mxGeometry relative="1" as="geometry" />
        </mxCell>
        <mxCell id="wgxXqdoDS0YWs2D0Menj-33" value="No" style="edgeLabel;html=1;align=center;verticalAlign=middle;resizable=0;points=[];" vertex="1" connectable="0" parent="wgxXqdoDS0YWs2D0Menj-32">
          <mxGeometry x="-0.72" y="-2" relative="1" as="geometry">
            <mxPoint x="4" y="-17" as="offset" />
          </mxGeometry>
        </mxCell>
        <mxCell id="wgxXqdoDS0YWs2D0Menj-25" value="The word &#39;lake&#39; is presented" style="rhombus;whiteSpace=wrap;html=1;" vertex="1" parent="WIyWlLk6GJQsqaUBKTNV-1">
          <mxGeometry x="700" y="230" width="80" height="90" as="geometry" />
        </mxCell>
        <mxCell id="wgxXqdoDS0YWs2D0Menj-28" value="—" style="rounded=1;whiteSpace=wrap;html=1;" vertex="1" parent="WIyWlLk6GJQsqaUBKTNV-1">
          <mxGeometry x="720" y="350" width="40" height="20" as="geometry" />
        </mxCell>
        <mxCell id="wgxXqdoDS0YWs2D0Menj-31" value="The" style="rounded=1;whiteSpace=wrap;html=1;" vertex="1" parent="WIyWlLk6GJQsqaUBKTNV-1">
          <mxGeometry x="825" y="262.5" width="50" height="25" as="geometry" />
        </mxCell>
        <mxCell id="wgxXqdoDS0YWs2D0Menj-37" style="edgeStyle=orthogonalEdgeStyle;rounded=0;orthogonalLoop=1;jettySize=auto;html=1;entryX=0.5;entryY=0;entryDx=0;entryDy=0;" edge="1" parent="WIyWlLk6GJQsqaUBKTNV-1" source="wgxXqdoDS0YWs2D0Menj-34" target="wgxXqdoDS0YWs2D0Menj-31">
          <mxGeometry relative="1" as="geometry" />
        </mxCell>
        <mxCell id="wgxXqdoDS0YWs2D0Menj-38" value="Yes" style="edgeLabel;html=1;align=center;verticalAlign=middle;resizable=0;points=[];" vertex="1" connectable="0" parent="wgxXqdoDS0YWs2D0Menj-37">
          <mxGeometry x="-0.7568" relative="1" as="geometry">
            <mxPoint y="22" as="offset" />
          </mxGeometry>
        </mxCell>
        <mxCell id="wgxXqdoDS0YWs2D0Menj-40" value="" style="edgeStyle=orthogonalEdgeStyle;rounded=0;orthogonalLoop=1;jettySize=auto;html=1;" edge="1" parent="WIyWlLk6GJQsqaUBKTNV-1" source="wgxXqdoDS0YWs2D0Menj-34" target="wgxXqdoDS0YWs2D0Menj-39">
          <mxGeometry relative="1" as="geometry" />
        </mxCell>
        <mxCell id="wgxXqdoDS0YWs2D0Menj-41" value="No" style="edgeLabel;html=1;align=center;verticalAlign=middle;resizable=0;points=[];" vertex="1" connectable="0" parent="wgxXqdoDS0YWs2D0Menj-40">
          <mxGeometry x="-0.72" y="1" relative="1" as="geometry">
            <mxPoint as="offset" />
          </mxGeometry>
        </mxCell>
        <mxCell id="wgxXqdoDS0YWs2D0Menj-34" value="Is it a river?" style="rhombus;whiteSpace=wrap;html=1;" vertex="1" parent="WIyWlLk6GJQsqaUBKTNV-1">
          <mxGeometry x="810" y="120" width="80" height="80" as="geometry" />
        </mxCell>
        <mxCell id="wgxXqdoDS0YWs2D0Menj-43" value="" style="edgeStyle=orthogonalEdgeStyle;rounded=0;orthogonalLoop=1;jettySize=auto;html=1;" edge="1" parent="WIyWlLk6GJQsqaUBKTNV-1" source="wgxXqdoDS0YWs2D0Menj-39" target="wgxXqdoDS0YWs2D0Menj-42">
          <mxGeometry relative="1" as="geometry" />
        </mxCell>
        <mxCell id="wgxXqdoDS0YWs2D0Menj-44" value="Yes" style="edgeLabel;html=1;align=center;verticalAlign=middle;resizable=0;points=[];" vertex="1" connectable="0" parent="wgxXqdoDS0YWs2D0Menj-43">
          <mxGeometry x="-0.792" y="4" relative="1" as="geometry">
            <mxPoint as="offset" />
          </mxGeometry>
        </mxCell>
        <mxCell id="wgxXqdoDS0YWs2D0Menj-50" value="" style="edgeStyle=orthogonalEdgeStyle;rounded=0;orthogonalLoop=1;jettySize=auto;html=1;" edge="1" parent="WIyWlLk6GJQsqaUBKTNV-1" source="wgxXqdoDS0YWs2D0Menj-39" target="wgxXqdoDS0YWs2D0Menj-49">
          <mxGeometry relative="1" as="geometry" />
        </mxCell>
        <mxCell id="wgxXqdoDS0YWs2D0Menj-51" value="No" style="edgeLabel;html=1;align=center;verticalAlign=middle;resizable=0;points=[];" vertex="1" connectable="0" parent="wgxXqdoDS0YWs2D0Menj-50">
          <mxGeometry x="-0.808" y="-1" relative="1" as="geometry">
            <mxPoint as="offset" />
          </mxGeometry>
        </mxCell>
        <mxCell id="wgxXqdoDS0YWs2D0Menj-39" value="Mountains?" style="rhombus;whiteSpace=wrap;html=1;" vertex="1" parent="WIyWlLk6GJQsqaUBKTNV-1">
          <mxGeometry x="930" y="120" width="80" height="80" as="geometry" />
        </mxCell>
        <mxCell id="wgxXqdoDS0YWs2D0Menj-45" style="edgeStyle=orthogonalEdgeStyle;rounded=0;orthogonalLoop=1;jettySize=auto;html=1;entryX=1;entryY=0.5;entryDx=0;entryDy=0;" edge="1" parent="WIyWlLk6GJQsqaUBKTNV-1" source="wgxXqdoDS0YWs2D0Menj-42" target="wgxXqdoDS0YWs2D0Menj-31">
          <mxGeometry relative="1" as="geometry">
            <Array as="points">
              <mxPoint x="900" y="275" />
              <mxPoint x="900" y="275" />
            </Array>
          </mxGeometry>
        </mxCell>
        <mxCell id="wgxXqdoDS0YWs2D0Menj-46" value="Yes" style="edgeLabel;html=1;align=center;verticalAlign=middle;resizable=0;points=[];" vertex="1" connectable="0" parent="wgxXqdoDS0YWs2D0Menj-45">
          <mxGeometry x="-0.1709" y="1" relative="1" as="geometry">
            <mxPoint as="offset" />
          </mxGeometry>
        </mxCell>
        <mxCell id="wgxXqdoDS0YWs2D0Menj-47" style="edgeStyle=orthogonalEdgeStyle;rounded=0;orthogonalLoop=1;jettySize=auto;html=1;entryX=1;entryY=0.5;entryDx=0;entryDy=0;" edge="1" parent="WIyWlLk6GJQsqaUBKTNV-1" source="wgxXqdoDS0YWs2D0Menj-42" target="wgxXqdoDS0YWs2D0Menj-28">
          <mxGeometry relative="1" as="geometry">
            <Array as="points">
              <mxPoint x="970" y="360" />
            </Array>
          </mxGeometry>
        </mxCell>
        <mxCell id="wgxXqdoDS0YWs2D0Menj-48" value="No" style="edgeLabel;html=1;align=center;verticalAlign=middle;resizable=0;points=[];" vertex="1" connectable="0" parent="wgxXqdoDS0YWs2D0Menj-47">
          <mxGeometry x="-0.4808" y="2" relative="1" as="geometry">
            <mxPoint x="21" y="-32" as="offset" />
          </mxGeometry>
        </mxCell>
        <mxCell id="wgxXqdoDS0YWs2D0Menj-42" value="A group of them?" style="rhombus;whiteSpace=wrap;html=1;" vertex="1" parent="WIyWlLk6GJQsqaUBKTNV-1">
          <mxGeometry x="930" y="235" width="80" height="80" as="geometry" />
        </mxCell>
        <mxCell id="wgxXqdoDS0YWs2D0Menj-52" style="edgeStyle=orthogonalEdgeStyle;rounded=0;orthogonalLoop=1;jettySize=auto;html=1;" edge="1" parent="WIyWlLk6GJQsqaUBKTNV-1" source="wgxXqdoDS0YWs2D0Menj-49">
          <mxGeometry relative="1" as="geometry">
            <mxPoint x="970" y="360" as="targetPoint" />
            <Array as="points">
              <mxPoint x="1080" y="360" />
            </Array>
          </mxGeometry>
        </mxCell>
        <mxCell id="wgxXqdoDS0YWs2D0Menj-53" value="Yes" style="edgeLabel;html=1;align=center;verticalAlign=middle;resizable=0;points=[];" vertex="1" connectable="0" parent="wgxXqdoDS0YWs2D0Menj-52">
          <mxGeometry x="-0.2563" y="2" relative="1" as="geometry">
            <mxPoint as="offset" />
          </mxGeometry>
        </mxCell>
        <mxCell id="wgxXqdoDS0YWs2D0Menj-55" value="" style="edgeStyle=orthogonalEdgeStyle;rounded=0;orthogonalLoop=1;jettySize=auto;html=1;" edge="1" parent="WIyWlLk6GJQsqaUBKTNV-1" source="wgxXqdoDS0YWs2D0Menj-49" target="wgxXqdoDS0YWs2D0Menj-54">
          <mxGeometry relative="1" as="geometry" />
        </mxCell>
        <mxCell id="wgxXqdoDS0YWs2D0Menj-56" value="No" style="edgeLabel;html=1;align=center;verticalAlign=middle;resizable=0;points=[];" vertex="1" connectable="0" parent="wgxXqdoDS0YWs2D0Menj-55">
          <mxGeometry x="-0.7268" y="-1" relative="1" as="geometry">
            <mxPoint as="offset" />
          </mxGeometry>
        </mxCell>
        <mxCell id="wgxXqdoDS0YWs2D0Menj-49" value="A continent?" style="rhombus;whiteSpace=wrap;html=1;" vertex="1" parent="WIyWlLk6GJQsqaUBKTNV-1">
          <mxGeometry x="1040" y="120" width="80" height="80" as="geometry" />
        </mxCell>
        <mxCell id="wgxXqdoDS0YWs2D0Menj-58" value="" style="edgeStyle=orthogonalEdgeStyle;rounded=0;orthogonalLoop=1;jettySize=auto;html=1;" edge="1" parent="WIyWlLk6GJQsqaUBKTNV-1" source="wgxXqdoDS0YWs2D0Menj-54" target="wgxXqdoDS0YWs2D0Menj-57">
          <mxGeometry relative="1" as="geometry" />
        </mxCell>
        <mxCell id="wgxXqdoDS0YWs2D0Menj-59" value="Yes" style="edgeLabel;html=1;align=center;verticalAlign=middle;resizable=0;points=[];" vertex="1" connectable="0" parent="wgxXqdoDS0YWs2D0Menj-58">
          <mxGeometry x="-0.27" y="-1" relative="1" as="geometry">
            <mxPoint as="offset" />
          </mxGeometry>
        </mxCell>
        <mxCell id="wgxXqdoDS0YWs2D0Menj-66" value="" style="edgeStyle=orthogonalEdgeStyle;rounded=0;orthogonalLoop=1;jettySize=auto;html=1;" edge="1" parent="WIyWlLk6GJQsqaUBKTNV-1" source="wgxXqdoDS0YWs2D0Menj-54" target="wgxXqdoDS0YWs2D0Menj-65">
          <mxGeometry relative="1" as="geometry" />
        </mxCell>
        <mxCell id="wgxXqdoDS0YWs2D0Menj-67" value="No" style="edgeLabel;html=1;align=center;verticalAlign=middle;resizable=0;points=[];" vertex="1" connectable="0" parent="wgxXqdoDS0YWs2D0Menj-66">
          <mxGeometry x="-0.755" relative="1" as="geometry">
            <mxPoint as="offset" />
          </mxGeometry>
        </mxCell>
        <mxCell id="wgxXqdoDS0YWs2D0Menj-54" value="Islands?" style="rhombus;whiteSpace=wrap;html=1;" vertex="1" parent="WIyWlLk6GJQsqaUBKTNV-1">
          <mxGeometry x="1161" y="120" width="80" height="80" as="geometry" />
        </mxCell>
        <mxCell id="wgxXqdoDS0YWs2D0Menj-61" value="" style="edgeStyle=orthogonalEdgeStyle;rounded=0;orthogonalLoop=1;jettySize=auto;html=1;exitX=1;exitY=0.5;exitDx=0;exitDy=0;" edge="1" parent="WIyWlLk6GJQsqaUBKTNV-1" source="wgxXqdoDS0YWs2D0Menj-57" target="wgxXqdoDS0YWs2D0Menj-60">
          <mxGeometry relative="1" as="geometry">
            <Array as="points" />
          </mxGeometry>
        </mxCell>
        <mxCell id="wgxXqdoDS0YWs2D0Menj-62" value="Yes" style="edgeLabel;html=1;align=center;verticalAlign=middle;resizable=0;points=[];" vertex="1" connectable="0" parent="wgxXqdoDS0YWs2D0Menj-61">
          <mxGeometry x="-0.7" relative="1" as="geometry">
            <mxPoint as="offset" />
          </mxGeometry>
        </mxCell>
        <mxCell id="wgxXqdoDS0YWs2D0Menj-63" style="edgeStyle=orthogonalEdgeStyle;rounded=0;orthogonalLoop=1;jettySize=auto;html=1;" edge="1" parent="WIyWlLk6GJQsqaUBKTNV-1" source="wgxXqdoDS0YWs2D0Menj-57">
          <mxGeometry relative="1" as="geometry">
            <mxPoint x="1080" y="360" as="targetPoint" />
            <Array as="points">
              <mxPoint x="1201" y="360" />
            </Array>
          </mxGeometry>
        </mxCell>
        <mxCell id="wgxXqdoDS0YWs2D0Menj-64" value="No" style="edgeLabel;html=1;align=center;verticalAlign=middle;resizable=0;points=[];" vertex="1" connectable="0" parent="wgxXqdoDS0YWs2D0Menj-63">
          <mxGeometry x="-0.6117" relative="1" as="geometry">
            <mxPoint as="offset" />
          </mxGeometry>
        </mxCell>
        <mxCell id="wgxXqdoDS0YWs2D0Menj-57" value="A group of them?" style="rhombus;whiteSpace=wrap;html=1;" vertex="1" parent="WIyWlLk6GJQsqaUBKTNV-1">
          <mxGeometry x="1161" y="230" width="80" height="80" as="geometry" />
        </mxCell>
        <mxCell id="wgxXqdoDS0YWs2D0Menj-60" value="THE" style="rounded=1;whiteSpace=wrap;html=1;" vertex="1" parent="WIyWlLk6GJQsqaUBKTNV-1">
          <mxGeometry x="1290" y="267.5" width="49" height="20" as="geometry" />
        </mxCell>
        <mxCell id="wgxXqdoDS0YWs2D0Menj-69" value="" style="edgeStyle=orthogonalEdgeStyle;rounded=0;orthogonalLoop=1;jettySize=auto;html=1;" edge="1" parent="WIyWlLk6GJQsqaUBKTNV-1" source="wgxXqdoDS0YWs2D0Menj-65" target="wgxXqdoDS0YWs2D0Menj-68">
          <mxGeometry relative="1" as="geometry" />
        </mxCell>
        <mxCell id="wgxXqdoDS0YWs2D0Menj-70" value="Yes" style="edgeLabel;html=1;align=center;verticalAlign=middle;resizable=0;points=[];" vertex="1" connectable="0" parent="wgxXqdoDS0YWs2D0Menj-69">
          <mxGeometry x="-0.72" relative="1" as="geometry">
            <mxPoint as="offset" />
          </mxGeometry>
        </mxCell>
        <mxCell id="wgxXqdoDS0YWs2D0Menj-76" value="" style="edgeStyle=orthogonalEdgeStyle;rounded=0;orthogonalLoop=1;jettySize=auto;html=1;" edge="1" parent="WIyWlLk6GJQsqaUBKTNV-1" source="wgxXqdoDS0YWs2D0Menj-65" target="wgxXqdoDS0YWs2D0Menj-75">
          <mxGeometry relative="1" as="geometry" />
        </mxCell>
        <mxCell id="wgxXqdoDS0YWs2D0Menj-77" value="No" style="edgeLabel;html=1;align=center;verticalAlign=middle;resizable=0;points=[];" vertex="1" connectable="0" parent="wgxXqdoDS0YWs2D0Menj-76">
          <mxGeometry x="-0.669" y="-1" relative="1" as="geometry">
            <mxPoint as="offset" />
          </mxGeometry>
        </mxCell>
        <mxCell id="wgxXqdoDS0YWs2D0Menj-65" value="A country?" style="rhombus;whiteSpace=wrap;html=1;" vertex="1" parent="WIyWlLk6GJQsqaUBKTNV-1">
          <mxGeometry x="1474" y="120" width="80" height="80" as="geometry" />
        </mxCell>
        <mxCell id="wgxXqdoDS0YWs2D0Menj-71" style="edgeStyle=orthogonalEdgeStyle;rounded=0;orthogonalLoop=1;jettySize=auto;html=1;entryX=1;entryY=0.5;entryDx=0;entryDy=0;" edge="1" parent="WIyWlLk6GJQsqaUBKTNV-1" source="wgxXqdoDS0YWs2D0Menj-68" target="wgxXqdoDS0YWs2D0Menj-60">
          <mxGeometry relative="1" as="geometry" />
        </mxCell>
        <mxCell id="wgxXqdoDS0YWs2D0Menj-72" value="Yes" style="edgeLabel;html=1;align=center;verticalAlign=middle;resizable=0;points=[];" vertex="1" connectable="0" parent="wgxXqdoDS0YWs2D0Menj-71">
          <mxGeometry x="-0.155" relative="1" as="geometry">
            <mxPoint as="offset" />
          </mxGeometry>
        </mxCell>
        <mxCell id="wgxXqdoDS0YWs2D0Menj-73" style="edgeStyle=orthogonalEdgeStyle;rounded=0;orthogonalLoop=1;jettySize=auto;html=1;" edge="1" parent="WIyWlLk6GJQsqaUBKTNV-1" source="wgxXqdoDS0YWs2D0Menj-68">
          <mxGeometry relative="1" as="geometry">
            <mxPoint x="1200" y="360" as="targetPoint" />
            <Array as="points">
              <mxPoint x="1514" y="360" />
            </Array>
          </mxGeometry>
        </mxCell>
        <mxCell id="wgxXqdoDS0YWs2D0Menj-74" value="No" style="edgeLabel;html=1;align=center;verticalAlign=middle;resizable=0;points=[];" vertex="1" connectable="0" parent="wgxXqdoDS0YWs2D0Menj-73">
          <mxGeometry x="-0.8796" y="3" relative="1" as="geometry">
            <mxPoint x="-3" y="-10" as="offset" />
          </mxGeometry>
        </mxCell>
        <mxCell id="wgxXqdoDS0YWs2D0Menj-68" value="&lt;div&gt;Is one of the following words presented?&lt;/div&gt;&lt;div&gt;Kingdom, Federation, States, Republic&lt;br&gt;&lt;/div&gt;&lt;div&gt;&lt;br&gt;&lt;/div&gt;" style="rhombus;whiteSpace=wrap;html=1;" vertex="1" parent="WIyWlLk6GJQsqaUBKTNV-1">
          <mxGeometry x="1374" y="220" width="280" height="110" as="geometry" />
        </mxCell>
        <mxCell id="wgxXqdoDS0YWs2D0Menj-78" style="edgeStyle=orthogonalEdgeStyle;rounded=0;orthogonalLoop=1;jettySize=auto;html=1;" edge="1" parent="WIyWlLk6GJQsqaUBKTNV-1" source="wgxXqdoDS0YWs2D0Menj-75">
          <mxGeometry relative="1" as="geometry">
            <mxPoint x="1510" y="360" as="targetPoint" />
            <Array as="points">
              <mxPoint x="1710" y="360" />
            </Array>
          </mxGeometry>
        </mxCell>
        <mxCell id="wgxXqdoDS0YWs2D0Menj-79" value="Yes" style="edgeLabel;html=1;align=center;verticalAlign=middle;resizable=0;points=[];" vertex="1" connectable="0" parent="wgxXqdoDS0YWs2D0Menj-78">
          <mxGeometry x="-0.8981" relative="1" as="geometry">
            <mxPoint as="offset" />
          </mxGeometry>
        </mxCell>
        <mxCell id="wgxXqdoDS0YWs2D0Menj-81" value="" style="edgeStyle=orthogonalEdgeStyle;rounded=0;orthogonalLoop=1;jettySize=auto;html=1;" edge="1" parent="WIyWlLk6GJQsqaUBKTNV-1" source="wgxXqdoDS0YWs2D0Menj-75" target="wgxXqdoDS0YWs2D0Menj-80">
          <mxGeometry relative="1" as="geometry" />
        </mxCell>
        <mxCell id="wgxXqdoDS0YWs2D0Menj-82" value="No" style="edgeLabel;html=1;align=center;verticalAlign=middle;resizable=0;points=[];" vertex="1" connectable="0" parent="wgxXqdoDS0YWs2D0Menj-81">
          <mxGeometry x="-0.7295" y="1" relative="1" as="geometry">
            <mxPoint as="offset" />
          </mxGeometry>
        </mxCell>
        <mxCell id="wgxXqdoDS0YWs2D0Menj-75" value="A state?" style="rhombus;whiteSpace=wrap;html=1;" vertex="1" parent="WIyWlLk6GJQsqaUBKTNV-1">
          <mxGeometry x="1670" y="120" width="80" height="80" as="geometry" />
        </mxCell>
        <mxCell id="wgxXqdoDS0YWs2D0Menj-84" value="" style="edgeStyle=orthogonalEdgeStyle;rounded=0;orthogonalLoop=1;jettySize=auto;html=1;" edge="1" parent="WIyWlLk6GJQsqaUBKTNV-1" source="wgxXqdoDS0YWs2D0Menj-80" target="wgxXqdoDS0YWs2D0Menj-83">
          <mxGeometry relative="1" as="geometry" />
        </mxCell>
        <mxCell id="wgxXqdoDS0YWs2D0Menj-85" value="Yes" style="edgeLabel;html=1;align=center;verticalAlign=middle;resizable=0;points=[];" vertex="1" connectable="0" parent="wgxXqdoDS0YWs2D0Menj-84">
          <mxGeometry x="-0.6726" y="-2" relative="1" as="geometry">
            <mxPoint as="offset" />
          </mxGeometry>
        </mxCell>
        <mxCell id="wgxXqdoDS0YWs2D0Menj-80" value="A city?" style="rhombus;whiteSpace=wrap;html=1;" vertex="1" parent="WIyWlLk6GJQsqaUBKTNV-1">
          <mxGeometry x="1800" y="120" width="80" height="80" as="geometry" />
        </mxCell>
        <mxCell id="wgxXqdoDS0YWs2D0Menj-87" value="" style="edgeStyle=orthogonalEdgeStyle;rounded=0;orthogonalLoop=1;jettySize=auto;html=1;" edge="1" parent="WIyWlLk6GJQsqaUBKTNV-1" source="wgxXqdoDS0YWs2D0Menj-83" target="wgxXqdoDS0YWs2D0Menj-86">
          <mxGeometry relative="1" as="geometry" />
        </mxCell>
        <mxCell id="wgxXqdoDS0YWs2D0Menj-88" value="Yes" style="edgeLabel;html=1;align=center;verticalAlign=middle;resizable=0;points=[];" vertex="1" connectable="0" parent="wgxXqdoDS0YWs2D0Menj-87">
          <mxGeometry x="-0.7587" relative="1" as="geometry">
            <mxPoint as="offset" />
          </mxGeometry>
        </mxCell>
        <mxCell id="wgxXqdoDS0YWs2D0Menj-89" style="edgeStyle=orthogonalEdgeStyle;rounded=0;orthogonalLoop=1;jettySize=auto;html=1;" edge="1" parent="WIyWlLk6GJQsqaUBKTNV-1" source="wgxXqdoDS0YWs2D0Menj-83">
          <mxGeometry relative="1" as="geometry">
            <mxPoint x="1710" y="360" as="targetPoint" />
            <Array as="points">
              <mxPoint x="1840" y="360" />
            </Array>
          </mxGeometry>
        </mxCell>
        <mxCell id="wgxXqdoDS0YWs2D0Menj-90" value="No" style="edgeLabel;html=1;align=center;verticalAlign=middle;resizable=0;points=[];" vertex="1" connectable="0" parent="wgxXqdoDS0YWs2D0Menj-89">
          <mxGeometry x="-0.8531" y="2" relative="1" as="geometry">
            <mxPoint as="offset" />
          </mxGeometry>
        </mxCell>
        <mxCell id="wgxXqdoDS0YWs2D0Menj-83" value="Is the word &#39;city&#39; presented?" style="rhombus;whiteSpace=wrap;html=1;" vertex="1" parent="WIyWlLk6GJQsqaUBKTNV-1">
          <mxGeometry x="1800" y="235" width="80" height="80" as="geometry" />
        </mxCell>
        <mxCell id="wgxXqdoDS0YWs2D0Menj-86" value="THE" style="rounded=1;whiteSpace=wrap;html=1;" vertex="1" parent="WIyWlLk6GJQsqaUBKTNV-1">
          <mxGeometry x="1940" y="267.5" width="40" height="15" as="geometry" />
        </mxCell>
      </root>
    </mxGraphModel>
  </diagram>
</mxfile>
